<svg width="31" height="32" xmlns="http://www.w3.org/2000/svg" fill="none">

 <g>
  <title>Layer 1</title>
  <path id="svg_1" stroke="#1E2E36" d="m15.5,31c8.2843,0 15,-6.7157 15,-15c0,-8.28427 -6.7157,-15 -15,-15c-8.28427,0 -15,6.71573 -15,15c0,8.2843 6.71573,15 15,15z" clip-rule="evenodd" fill-rule="evenodd"/>
  <path id="svg_2" fill="#1E2E36" d="m12,15.8695c0,-0.2103 0.0783,-0.4207 0.2346,-0.5811l4.9194,-5.0476c0.313,-0.32107 0.8204,-0.32107 1.1332,0c0.3128,0.321 0.3128,0.8415 0,1.1626l-4.353,4.4661l4.3528,4.4662c0.3128,0.3211 0.3128,0.8416 0,1.1625c-0.3128,0.3212 -0.8202,0.3212 -1.1331,0l-4.9195,-5.0475c-0.1562,-0.1605 -0.2344,-0.3708 -0.2344,-0.5812z"/>
 </g>
</svg>